# xmcd CD database file
#
# Track frame offsets:
#	150
#	25984
#	42715
#	57374
#	78402
#	93450
#	122615
#	141955
#	156730
#
# Disc length: 2444 seconds
#
# Revision: 3
# Processed by: cddbd v1.5.2PL0 Copyright (c) Steve Scherf et al.
# Submitted via: CDex 1.70beta2
#
DISCID=80098a09
DTITLE=Monokel - Monokel
DYEAR=1986
DGENRE=Blues DDR
TTITLE0=Kindertraum
TTITLE1=Das Landei
TTITLE2=Paule Glotzmann
TTITLE3=Schwarze Marie
TTITLE4=Boogie Mobil
TTITLE5=Man schmiedet doch anders herum
TTITLE6=Bye bye Lübben City
TTITLE7=Oma Krüger
TTITLE8=Das Monster vom Schilkinsee oder der Bär, der Frohsinn bringt
EXTD=Fünf nette, junge Herren, die 1a KRAFT-BLUES machen! YEAR: 1986
EXTT0=
EXTT1=
EXTT2=
EXTT3=
EXTT4=
EXTT5=
EXTT6=
EXTT7=
EXTT8=
PLAYORDER=
